<?xml version="1.0" encoding="UTF-8"?>
<svg width="700pt" height="700pt" version="1.1" viewBox="0 0 700 700" xmlns="http://www.w3.org/2000/svg">
  <g>
		<path d="m246.15 157.37h207.71c2.3867 0 4.3203 1.9336 4.3203 4.3203v25.34c0 2.3867-1.9336 4.3203-4.3203 4.3203h-207.71c-2.3867 0-4.3203-1.9336-4.3203-4.3203v-25.34c0-2.3867 1.9336-4.3203 4.3203-4.3203zm203.39 8.6406h-199.07v16.699h199.07z"/>
		<path d="m267.01 141.75h165.98c2.3867 0 4.3203 1.9336 4.3203 4.3203v15.617c0 2.3867-1.9336 4.3203-4.3203 4.3203h-165.98c-2.3867 0-4.3203-1.9336-4.3203-4.3203v-15.617c0-2.3867 1.9336-4.3203 4.3203-4.3203zm161.66 8.6406h-157.34v6.9766h157.34z"/>
		<path d="m257 182.71h186.04c2.3867 0 4.3203 1.9336 4.3203 4.3203 0 0.32031-0.035156 0.63281-0.10156 0.93359l-7.9531 61.707-21.234 164.79-4.2695-0.53906 4.2852 0.55078c-0.28125 2.1914-2.1602 3.7852-4.3125 3.7695h-127.57c-2.3281 0-4.2227-1.8398-4.3164-4.1445l-21.961-170.43-7.2266-56.094-0.015625 0.003907c-0.30469-2.3672 1.3672-4.5312 3.7344-4.8359 0.19531-0.027344 0.39453-0.035156 0.58594-0.035156zm181.14 8.6406h-176.29l6.6016 51.242 21.52 167.01h120.04l20.746-161.02 7.375-57.238z"/>
		<path d="m263.54 226.14c-2.3867 0-4.3203 1.9336-4.3203 4.3203 0 2.3867 1.9336 4.3203 4.3203 4.3203h172.93c2.3867 0 4.3203-1.9336 4.3203-4.3203 0-2.3867-1.9336-4.3203-4.3203-4.3203z"/>
		<path d="m402.51 289.57c-0.84375 0.39453-1.5586 0.77734-2.2461 1.1445-1.418 0.75781-2.75 1.4727-4.8086 2.2305-3.8047 1.4023-7.293 2.418-10.906 3.0859-3.5898 0.66406-7.2305 0.95312-11.352 0.90234-2.3398-0.03125-5.1133-0.19922-7.9531-0.56641-2.5-0.32031-5.0039-0.77344-7.2656-1.3867-6.4688-1.7539-8.043-2.3789-14.254-4.8398l-0.60156-0.23828-0.003906 0.015625c-3.3164-1.3125-6.6875-2.4883-9.9844-3.3398-3.3086-0.85156-6.668-1.4336-10.004-1.5742-3.7695-0.16016-7.4844 0.050782-11.094 0.88281-3.5078 0.8125-6.9492 2.2305-10.297 4.5078l-4.8594-7.1211c4.2969-2.9219 8.7227-4.7461 13.234-5.7891 4.4062-1.0195 8.8672-1.2773 13.355-1.0859 3.9688 0.16797 7.9219 0.84766 11.793 1.8438 3.8867 1 7.5625 2.2695 11.031 3.6445v0.015625l0.60938 0.24219c5.6328 2.2344 7.0625 2.7969 13.344 4.5039 2.0078 0.54687 4.0898 0.92969 6.082 1.1875 2.5039 0.32031 4.9336 0.47266 6.9766 0.5 3.5352 0.046874 6.6445-0.20313 9.6992-0.76563 3.0273-0.55859 6.0742-1.457 9.4883-2.7148 1.6289-0.60156 2.6445-1.1445 3.7266-1.7227 0.78516-0.42187 1.6016-0.85937 2.6523-1.3477l3.6445 7.7969z"/>
		<path d="m350 248.71c14.855 0 28.379 4.0391 38.227 10.566 10.375 6.875 16.789 16.535 16.789 27.352 0 10.816-6.418 20.477-16.789 27.352-9.8516 6.5273-23.371 10.566-38.227 10.566s-28.379-4.0391-38.227-10.566c-10.375-6.875-16.789-16.535-16.789-27.352 0-10.816 6.418-20.477 16.789-27.352 9.8516-6.5273 23.371-10.566 38.227-10.566zm33.469 17.754c-8.4961-5.6328-20.324-9.1172-33.469-9.1172s-24.973 3.4844-33.469 9.1172c-7.9766 5.2852-12.91 12.426-12.91 20.164 0 7.7383 4.9336 14.879 12.91 20.164 8.4961 5.6328 20.324 9.1172 33.469 9.1172s24.973-3.4844 33.469-9.1172c7.9766-5.2852 12.91-12.426 12.91-20.164 0-7.7383-4.9336-14.879-12.91-20.164z"/>
		<path d="m277.06 338.67c-2.3867 0-4.3203 1.9336-4.3203 4.3203s1.9336 4.3203 4.3203 4.3203h145.88c2.3867 0 4.3203-1.9336 4.3203-4.3203s-1.9336-4.3203-4.3203-4.3203z"/>
		<path d="m354.32 2.5312 116.92 67.504-0.007812 0.015625 116.89 67.488 4.3555 2.5156v279.9l-4.3555 2.5156-116.89 67.488 0.007812 0.015625-116.92 67.504-4.3203 2.4922-4.3203-2.4922-116.92-67.504 0.007812-0.015625-116.89-67.488-4.3555-2.5156v-279.9l4.3555-2.5156 116.89-67.488-0.007812-0.015625 116.92-67.504 4.3203-2.4922zm108.28 82.422-112.6-65.008-112.6 65.008h-0.035156l-112.56 64.988v260.12l112.56 64.988h0.035156l112.6 65.008 112.6-65.008h0.035156l112.56-64.988v-260.12l-112.56-64.988z"/>
  </g>
</svg>
